<?xml version="1.0" encoding="utf-8"?>
<!-- Generator: Adobe Illustrator 25.2.3, SVG Export Plug-In . SVG Version: 6.00 Build 0)  -->
<svg version="1.1" id="Layer_1" zoomAndPan="disable"
	 xmlns="http://www.w3.org/2000/svg" xmlns:xlink="http://www.w3.org/1999/xlink" x="0px" y="0px" viewBox="0 0 1000 500"
	 style="enable-background:new 0 0 1000 500;" xml:space="preserve">
<style type="text/css">
	.st0{fill:#3C0710;}
	.st1{fill:#4E0433;}
	.st2{fill:#610049;}
	.st3{fill:#73005F;}
	.st4{fill:#840074;}
	.st5{fill:#950089;}
	.st6{fill:#A8009D;}
	.st7{fill:#B900B2;}
	.st8{fill:#CA00C5;}
	.st9{fill:#DB00D9;}
	.st10{fill:#EA00EC;}
</style>
<g>
	<path class="st0" d="M997.9,659.5h12.4v-55.4C1004.1,621.5,1000.1,640.3,997.9,659.5z"/>
	<path class="st1" d="M1010.3,461c-20.7,4-40.4,10.7-58.3,23.5c-49.6,35.6-67.1,106.8-64.9,174.9h110.8c2.2-19.2,6.2-38,12.4-55.4
		V461z"/>
	<path class="st2" d="M951.9,484.6c17.9-12.8,37.7-19.6,58.3-23.5v-61c-56.7,11.9-118.8,1.8-167.3,36.6
		c-58.7,42.2-72.4,134-61.8,211.9c0.5,3.7,1.1,7.3,1.6,10.9h104.2C884.8,591.3,902.3,520.2,951.9,484.6z"/>
	<path class="st3" d="M843,436.7c48.5-34.8,110.6-24.7,167.3-36.6V283.4c-25.1,30.3-56.3,53.3-91.7,64.3
		c-61,18.9-131.2,2.7-184.6,41c-58.7,42.2-72.4,134-61.8,211.9c2.7,19.8,6.6,39.4,11,58.8h99.6c-0.6-3.6-1.1-7.3-1.6-10.9
		C770.5,570.7,784.2,478.8,843,436.7z"/>
	<path class="st4" d="M672.2,600.7c-10.7-77.9,3-169.8,61.8-211.9c53.4-38.4,123.6-22.1,184.6-41c35.3-11,66.6-34,91.7-64.3v-442
		h-78.7c5.6,15.1,10.8,30.4,15.4,46c22.9,78.1,30.3,164.2,8.5,242.8c-21.8,78.5-75.8,147.9-145.8,169.6c-61,18.9-131.2,2.7-184.6,41
		c-58.7,42.2-72.4,134-61.8,211.9c4.9,36.1,13.8,71.4,22.3,106.7h97.7C678.8,640,674.9,620.5,672.2,600.7z"/>
	<path class="st5" d="M563.3,552.8c-10.7-77.9,3-169.8,61.8-211.9c53.4-38.4,123.6-22.1,184.6-41c70-21.7,124-91.1,145.8-169.6
		c21.8-78.5,14.4-164.7-8.5-242.8c-4.6-15.6-9.7-30.9-15.4-46h-93c22.5,77.6,29.5,163,7.9,240.9c-21.8,78.6-75.8,147.9-145.8,169.6
		c-61,18.9-131.2,2.7-184.6,41c-58.7,42.2-72.4,134-61.8,211.9c7.2,52.4,22.5,103.1,33.1,154.7h98.1
		C577,624.2,568.2,588.8,563.3,552.8z"/>
	<path class="st6" d="M454.3,504.9c-10.7-77.9,3-169.8,61.8-211.9c53.4-38.4,123.6-22.1,184.6-41c70-21.7,124-91.1,145.8-169.6
		c21.6-77.9,14.6-163.2-7.9-240.9h-97.3c12.5,63.9,13.5,130.8-3.7,192.9C715.7,113,661.7,182.3,591.7,204
		c-61,18.9-131.2,2.7-184.6,41c-58.7,42.2-72.4,134-61.8,211.9c9.4,68.5,32.8,134.2,41.1,202.6h101
		C476.8,608,461.4,557.2,454.3,504.9z"/>
	<path class="st7" d="M345.3,457c-10.7-77.9,3-169.8,61.8-211.9c53.4-38.4,123.6-22.1,184.6-41c70-21.7,124-91.1,145.8-169.6
		c17.2-62.1,16.2-129,3.7-192.9H639.3c4.8,48.8,2.2,98.3-10.8,145c-21.8,78.5-75.8,147.9-145.8,169.6c-61,18.9-131.2,2.7-184.6,41
		c-58.7,42.2-72.4,134-61.8,211.9c10.7,77.9,39.5,152.2,43.6,230.9c0.3,6.5,0.5,13,0.4,19.6h106C378.1,591.2,354.7,525.4,345.3,457z
		"/>
	<path class="st8" d="M279.9,639.9c-4.1-78.7-32.9-153-43.6-230.9c-10.7-77.9,3-169.8,61.8-211.9c53.4-38.4,123.6-22.1,184.6-41
		c70-21.7,124-91.1,145.8-169.6c13-46.8,15.6-96.2,10.8-145H532.6c-0.2,32.9-4.3,65.6-13,97.1c-21.8,78.6-75.8,147.9-145.8,169.6
		c-61,18.9-131.2,2.7-184.6,41c-58.7,42.2-72.4,134-61.8,211.9C138,439,166.9,513.4,170.9,592c1.2,22.6,0.1,45.2-3.1,67.5h112.5
		C280.4,653,280.3,646.5,279.9,639.9z"/>
	<path class="st9" d="M170.9,592c-4.1-78.7-32.9-153-43.6-230.9c-10.7-77.9,3-169.8,61.8-211.9c53.4-38.4,123.6-22.1,184.6-41
		c70-21.7,124-91.1,145.8-169.6c8.7-31.5,12.8-64.2,13-97.1H420.4c-2.1,16.6-5.4,33.1-9.8,49.2C388.8-30.8,334.8,38.6,264.8,60.3
		c-61,18.9-131.2,2.7-184.6,41c-58.7,42.2-72.4,134-61.8,211.9C29,391.1,57.9,465.4,62,544.1c2,39-2.7,78.2-13.2,115.4h119.1
		C171,637.2,172.1,614.6,170.9,592z"/>
	<path class="st10" d="M62,544.1c-4.1-78.7-32.9-153-43.6-230.9c-10.7-77.9,3-169.8,61.8-211.9c53.4-38.4,123.6-22.1,184.6-41
		c70-21.7,124-91.1,145.8-169.6c4.5-16.1,7.7-32.6,9.8-49.2H-10v818.1h58.8C59.2,622.3,64,583.2,62,544.1z"/>
</g>
</svg>
